<svg id="Layer_1" enable-background="new 0 0 497.131 497.131" height="512" viewBox="0 0 497.131 497.131" width="512" xmlns="http://www.w3.org/2000/svg"><g id="XMLID_3019_"><path id="XMLID_3318_" d="m40.763 195c0 49.525 18.601 96.749 52.383 132.97.105.112 4.602 4.933 4.448 4.768 7.674-13.482 130.495-229.257 138.169-242.738l11-45-11-45c-107.521 0-195 87.473-195 195z" fill="#ff8fc3"/><path id="XMLID_3316_" d="m235.763 0v90.195l138.169 242.543 4.448-4.768c33.779-36.218 52.383-83.44 52.383-132.97 0-107.524-87.477-195-195-195z" fill="#ff5ca8"/><path id="XMLID_3315_" d="m94.118 203c-21.495 63.444-11.455 140.057 32.894 193.275 27.399 32.879 65.437 53.725 108.751 53.725l10-180-10-180c-66.995 0-120.23 49.791-141.645 113z" fill="#ffcebf"/><g id="XMLID_3259_"><g><path id="XMLID_667_" d="m168.262 193.783h30v47.434h-30z" fill="#c6715a" transform="matrix(.316 -.949 .949 .316 -81.029 322.578)"/></g></g><path id="XMLID_3280_" d="m377.382 203c-21.413-63.201-74.637-112.987-141.619-113v359.999c43.302-.008 81.33-20.851 108.725-53.724 44.349-53.218 54.388-129.831 32.894-193.275z" fill="#ffbfab"/><path id="XMLID_3273_" d="m257.097 276.647c-7.419 7.419-13.794 13.794-21.213 21.213l40.141 40.141 19.738 2.763 1.475-23.976c-13.387-13.387-26.764-26.765-40.141-40.141z" fill="#d5e8fe"/><path id="XMLID_3274_" d="m307.845 306.181c-10.692 10.692-31.711 31.711-42.427 42.426 7.241 7.241 141.179 141.179 148.525 148.524l42.426-42.426c-4.296-4.296-140.948-140.948-148.524-148.524z" fill="#edf5ff"/><g id="XMLID_3258_"><g><path id="XMLID_668_" d="m264.545 202.5h47.434v30h-47.434z" fill="#b35f49" transform="matrix(.949 -.316 .316 .949 -53.982 102.302)"/></g></g></g></svg>