<svg id="Capa_1" enable-background="new 0 0 512 512" height="512" viewBox="0 0 512 512" width="512" xmlns="http://www.w3.org/2000/svg" xmlns:xlink="http://www.w3.org/1999/xlink"><linearGradient id="SVGID_1_" gradientUnits="userSpaceOnUse" x1="256" x2="256" y1="317" y2="111.973"><stop offset="0" stop-color="#ffc2cc"/><stop offset="1" stop-color="#fff2f4"/></linearGradient><linearGradient id="SVGID_2_" gradientUnits="userSpaceOnUse" x1="256" x2="256" y1="512" y2="0"><stop offset="0" stop-color="#fd3a84"/><stop offset="1" stop-color="#ffa68d"/></linearGradient><g><g><g><path d="m166 240h-15l-37-22h-45l-39 22h-15c-8.28 0-15 6.72-15 15v45l27 17h126l28-17v-45c0-8.28-6.72-15-15-15zm135-128.027h-60c-8.284 0-15 6.716-15 15v83.027l35 26h27l28-26v-83.027c0-8.284-6.716-15-15-15zm196 128.027h-46l-10-13-20 13h-45c-8.28 0-15 6.72-15 15v45l17 17h117l17-17v-45c0-8.28-6.72-15-15-15z" fill="url(#SVGID_1_)"/></g></g><g><g><path d="m0 497c0 8.28 6.72 15 15 15h151c8.28 0 15-6.72 15-15v-197h-181zm151-481.945c0-8.284-6.716-15-15-15-58.449 0-106 47.103-106 105v134.945h121zm150-15.055h-60c-24.813 0-45 20.187-45 45v30c0 41.355 33.645 75 75 75s75-33.645 75-75v-30c0-24.813-20.187-45-45-45zm-75 467c0 24.813 20.187 45 45 45s45-20.187 45-45v-257h-90zm135-167v137c0 41.35 33.64 75 75 75 20.03 0 39-7.76 53.41-21.85 14.57-14.24 22.59-33.11 22.59-53.15v-137zm45-120c-8.284 0-15 6.716-15 15s6.716 15 15 15h15v30h30v-30h15c8.284 0 15-6.716 15-15s-6.716-15-15-15h-15v-30h15c8.284 0 15-6.716 15-15s-6.716-15-15-15h-15v-30h15c8.284 0 15-6.716 15-15s-6.716-15-15-15h-15v-15c0-8.284-6.716-15-15-15s-15 6.716-15 15v15h-15c-8.284 0-15 6.716-15 15s6.716 15 15 15h15v30h-15c-8.284 0-15 6.716-15 15s6.716 15 15 15h15v30z" fill="url(#SVGID_2_)"/></g></g></g></svg>